<?xml version="1.0" encoding="UTF-8"?>
<!-- Generator: visioncortex VTracer 0.6.2 -->
<svg version="1.1" xmlns="http://www.w3.org/2000/svg" width="1280" height="1280">
<path d="M0 0 C1.55990925 0.1539947 3.12324021 0.27438911 4.6875 0.375 C12.2306053 1.02323561 19.5905491 2.50104617 27 4 C27.92635254 4.1861084 28.85270508 4.3722168 29.80712891 4.56396484 C62.31566042 11.12293622 62.31566042 11.12293622 72 15 C73.051875 15.12375 74.10375 15.2475 75.1875 15.375 C78.44933577 15.90972717 80.69349845 16.60830704 83.6875 17.875 C87.42353111 19.45104954 91.05137781 20.57747209 95 21.5 C99.6843876 22.60396396 103.93927899 24.09123248 108.36328125 25.96484375 C111.40800203 27.16017857 114.48674739 28.07910884 117.625 29 C122.03479872 30.31881831 125.95493247 31.8311536 129.99609375 34.0078125 C132.34031475 35.16849892 134.71732418 36.01488122 137.1875 36.875 C145.48036162 39.80391927 153.35854739 43.63689718 161.1875 47.625 C164.42704881 49.27098435 167.67122026 50.69566164 171.0625 52 C175.2759166 53.62971774 179.10581302 55.64153676 183.015625 57.89453125 C185.2719097 59.15147725 187.56665993 60.13655675 190 61 C190 61.66 190 62.32 190 63 C190.71929688 63.103125 191.43859375 63.20625 192.1796875 63.3125 C195.30692035 64.07481715 197.41647119 65.27714375 200.125 67 C202.80872417 68.69670099 204.97770778 69.99256926 208 71 C208 71.66 208 72.32 208 73 C210.475 73.495 210.475 73.495 213 74 C213 74.66 213 75.32 213 76 C213.57435791 76.11553223 214.14871582 76.23106445 214.74047852 76.35009766 C217.19685131 77.05662001 218.98504069 78.04950608 221.15234375 79.3984375 C221.92900391 79.87796875 222.70566406 80.3575 223.50585938 80.8515625 C224.30830078 81.35429687 225.11074219 81.85703125 225.9375 82.375 C227.52989992 83.36205661 229.12234656 84.34903783 230.71484375 85.3359375 C231.45718262 85.8009668 232.19952148 86.26599609 232.96435547 86.74511719 C234.64112487 87.77876971 236.35001196 88.76013413 238.06640625 89.7265625 C239.02353516 90.35691406 239.02353516 90.35691406 240 91 C240 91.66 240 92.32 240 93 C240.97646484 93.31324219 240.97646484 93.31324219 241.97265625 93.6328125 C246.17930871 95.53259103 249.70961252 98.17382002 253.4375 100.875 C254.91485834 101.93560136 256.39271391 102.99551048 257.87109375 104.0546875 C258.92079346 104.81217285 258.92079346 104.81217285 259.99169922 105.58496094 C261.80959944 106.86584468 263.65697835 108.0681712 265.53515625 109.2578125 C266.34855469 109.83273438 267.16195312 110.40765625 268 111 C268 111.66 268 112.32 268 113 C268.804375 113.37125 268.804375 113.37125 269.625 113.75 C272.5823982 115.30652537 275.29724051 117.03435673 278 119 C278 119.66 278 120.32 278 121 C279.07314453 121.37125 279.07314453 121.37125 280.16796875 121.75 C283.31409706 123.13863595 285.63810963 124.84463946 288.3125 127 C289.19550781 127.70125 290.07851563 128.4025 290.98828125 129.125 C291.65214844 129.74375 292.31601562 130.3625 293 131 C293 131.66 293 132.32 293 133 C293.99 133.33 294.98 133.66 296 134 C296 134.66 296 135.32 296 136 C296.55558594 136.2371875 297.11117187 136.474375 297.68359375 136.71875 C300.54371121 138.3007374 302.66948669 140.27662715 305.0625 142.5 C307.65920335 144.90536731 310.05106306 147.03404204 313 149 C313 149.66 313 150.32 313 151 C313.9590625 151.4021875 313.9590625 151.4021875 314.9375 151.8125 C317 153 317 153 318 156 C318.66 156.33 319.32 156.66 320 157 C320.66 157.33 321.32 157.66 322 158 C322.33 158.99 322.66 159.98 323 161 C323.66 161.33 324.32 161.66 325 162 C325.66 162.33 326.32 162.66 327 163 C327.33 163.99 327.66 164.98 328 166 C328.66 166.33 329.32 166.66 330 167 C330.66 167.33 331.32 167.66 332 168 C332.33 168.99 332.66 169.98 333 171 C333.99 171.33 334.98 171.66 336 172 C336 172.66 336 173.32 336 174 C336.66 174 337.32 174 338 174 C338 174.66 338 175.32 338 176 C338.66 176 339.32 176 340 176 C341.515625 177.50390625 341.515625 177.50390625 343.25 179.5625 C343.86488281 180.28824219 344.47976563 181.01398438 345.11328125 181.76171875 C345.73589844 182.50035156 346.35851563 183.23898438 347 184 C347.59167969 184.66644531 348.18335938 185.33289063 348.79296875 186.01953125 C349.60701172 186.93798828 349.60701172 186.93798828 350.4375 187.875 C350.93121094 188.42929687 351.42492188 188.98359375 351.93359375 189.5546875 C353 191 353 191 353 193 C353.99 193.33 354.98 193.66 356 194 C356 194.66 356 195.32 356 196 C356.66 196 357.32 196 358 196 C359.62109375 197.828125 359.62109375 197.828125 361.4375 200.25 C362.03433594 201.03890625 362.63117187 201.8278125 363.24609375 202.640625 C363.82488281 203.41921875 364.40367187 204.1978125 365 205 C365.56847656 205.71671875 366.13695312 206.4334375 366.72265625 207.171875 C368 209 368 209 368 211 C368.66 211 369.32 211 370 211 C371.5078125 212.6796875 371.5078125 212.6796875 373.125 214.875 C373.66382813 215.59429687 374.20265625 216.31359375 374.7578125 217.0546875 C376 219 376 219 376 221 C376.66 221 377.32 221 378 221 C379.18579102 222.35424805 379.18579102 222.35424805 380.50390625 224.26171875 C380.99246094 224.96151855 381.48101563 225.66131836 381.984375 226.38232422 C382.50515625 227.14303223 383.0259375 227.90374023 383.5625 228.6875 C384.10261719 229.46625488 384.64273437 230.24500977 385.19921875 231.04736328 C386.29577936 232.62951575 387.3897068 234.21349657 388.48095703 235.79931641 C389.76560122 237.66041938 391.06241854 239.51124513 392.37109375 241.35546875 C398.4378372 249.96022598 404.05222089 258.83853851 409.60742188 267.77978516 C410.54730718 269.27826288 411.50217428 270.767433 412.47070312 272.24755859 C412.92896484 272.95348145 413.38722656 273.6594043 413.859375 274.38671875 C414.27155273 275.01151123 414.68373047 275.63630371 415.10839844 276.2800293 C416 278 416 278 416 281 C416.66 281 417.32 281 418 281 C418.40992188 281.83144531 418.81984375 282.66289062 419.2421875 283.51953125 C419.78101563 284.60621094 420.31984375 285.69289063 420.875 286.8125 C421.40867187 287.89144531 421.94234375 288.97039062 422.4921875 290.08203125 C423.97221139 293.07838265 423.97221139 293.07838265 426 296 C426 296.99 426 297.98 426 299 C426.66 299 427.32 299 428 299 C432.59179791 308.67115102 437.17799723 318.34414065 441.67919922 328.05786133 C443.12032482 331.15708813 444.60784792 334.21927218 446.1875 337.25 C448.13142298 341.07195027 449.51494198 345.05000126 450.9375 349.08984375 C452.01531844 352.04195676 453.20566703 354.92154199 454.4375 357.8125 C456.76966858 363.33076966 458.81148075 368.92409932 460.7890625 374.578125 C461.65478187 377.02448037 462.5422195 379.45278586 463.4609375 381.87890625 C467.45758447 392.48999124 471.09139946 403.1789781 473.359375 414.30078125 C473.92688559 416.98783981 473.92688559 416.98783981 474.95703125 419.38671875 C476.27305605 422.68417415 477.10489004 426.05722391 477.9375 429.5 C478.11152344 430.21285156 478.28554687 430.92570312 478.46484375 431.66015625 C478.8166897 433.10634661 479.1668111 434.55295771 479.51513672 436 C479.92742425 437.70063418 480.35469991 439.39762354 480.78515625 441.09375 C482.87793435 449.60209376 484.26056404 458.21656674 485.64257812 466.86328125 C485.80435547 467.87003906 485.96613281 468.87679688 486.1328125 469.9140625 C486.27605957 470.8210791 486.41930664 471.7280957 486.56689453 472.66259766 C486.97073485 475.1423584 486.97073485 475.1423584 488 478 C488.17753156 479.85140053 488.31892198 481.70639099 488.4375 483.5625 C488.72863018 487.42113019 489.15482399 491.09988048 490 494.875 C491.16335064 500.1833259 491.45960699 505.48092865 491.75390625 510.8984375 C491.89699467 513.82891509 491.89699467 513.82891509 492.49681091 515.92988586 C493.01725088 518.07096992 493.19558593 520.02411645 493.29711914 522.22338867 C493.33708511 523.04912888 493.37705109 523.87486908 493.41822815 524.72563171 C493.45681442 525.61410294 493.4954007 526.50257416 493.53515625 527.41796875 C493.59962196 528.81394035 493.59962196 528.81394035 493.66539001 530.2381134 C493.75557136 532.21423466 493.84369846 534.19045057 493.92993164 536.16674805 C494.06004888 539.13164782 494.19844716 542.09607291 494.33789062 545.06054688 C495.15583678 562.94338442 495.09419279 580.62351554 494.1875 598.5 C494.14464874 599.36531342 494.10179749 600.23062683 494.05764771 601.12216187 C492.23425035 637.29724895 492.23425035 637.29724895 489 647 C488.82167153 649.01822538 488.68062808 651.03985804 488.5625 653.0625 C488.0491606 660.28133529 486.77984519 667.07808691 484.9375 674.0625 C484.23206136 676.77116896 483.8458335 679.33633507 483.625 682.125 C483.12037279 687.51703524 481.45973969 692.52452189 479.9140625 697.6953125 C479.18587126 700.3280039 478.65906256 702.73364522 478.375 705.4375 C477.9009435 709.94103676 476.83047752 714.05078003 475.0546875 718.21875 C473.49644344 722.32789729 472.58129099 726.58148525 471.58789062 730.85351562 C470.59548175 734.98525776 469.34498778 738.87812685 467.80541992 742.83666992 C466.22615329 747.07852553 464.96205665 751.42709844 463.625 755.75 C461.43254046 762.74127896 459.13238107 769.5726153 456.17578125 776.28515625 C454.8610655 779.3207956 453.71317398 782.39865966 452.5625 785.5 C450.50472526 790.91621842 448.05752637 796.01316308 445.40625 801.16015625 C443.72232244 804.56075441 442.35931619 808.03385564 440.9921875 811.5703125 C439.24893597 815.83921979 437.10435412 819.90069243 435 824 C434.2073226 825.60366747 433.41566481 827.2078393 432.625 828.8125 C427.53265251 838.9655655 422.01287673 848.79296527 416.11328125 858.4921875 C414.67376585 860.86121101 413.28136264 863.25046059 411.91796875 865.6640625 C410.36580619 868.36375054 408.76060582 870.93563935 407 873.5 C404.92771821 876.5647145 403.06499217 879.66376415 401.2734375 882.90234375 C399.04861675 886.56715584 396.55078192 890.0524604 394.0847168 893.55761719 C391.8789746 896.67869994 391.8789746 896.67869994 390 900 C389.34 900 388.68 900 388 900 C387.5359375 901.175625 387.5359375 901.175625 387.0625 902.375 C386 905 386 905 385 907 C384.34 907 383.68 907 383 907 C383 907.99 383 908.98 383 910 C382.34 910 381.68 910 381 910 C380.67 911.32 380.34 912.64 380 914 C379.34 914 378.68 914 378 914 C377.5978125 915.2065625 377.5978125 915.2065625 377.1875 916.4375 C376.5996875 917.7059375 376.5996875 917.7059375 376 919 C375.01 919.33 374.02 919.66 373 920 C372.33281753 921.66646025 371.66626916 923.33317439 371 925 C369.35438309 927.13300428 367.7056892 929.16421137 365.9375 931.1875 C362.63225395 934.85872943 362.63225395 934.85872943 360 939 C359.34 939 358.68 939 358 939 C357.731875 939.5775 357.46375 940.155 357.1875 940.75 C355.97070811 943.05550043 354.69666121 945.02056192 353 947 C352.34 947 351.68 947 351 947 C350.77957031 947.53882813 350.55914063 948.07765625 350.33203125 948.6328125 C348.5544585 951.79178343 346.16509972 954.26249777 343.6875 956.875 C339.98360662 960.81574099 336.43697207 964.82312422 333 969 C331.3125 970.875 331.3125 970.875 330 972 C329.34 972 328.68 972 328 972 C327.67 972.99 327.34 973.98 327 975 C326.34 975 325.68 975 325 975 C325 975.66 325 976.32 325 977 C324.34 977 323.68 977 323 977 C323 977.66 323 978.32 323 979 C321.56640625 980.41015625 321.56640625 980.41015625 319.5625 982.0625 C316.34655816 984.78893564 313.33121804 987.61859151 310.375 990.625 C307.05504776 993.97935589 303.76661353 997.15207269 300 1000 C299.34 1000 298.68 1000 298 1000 C298 1000.66 298 1001.32 298 1002 C292.52380952 1007 292.52380952 1007 290 1007 C290 1007.66 290 1008.32 290 1009 C288.3828125 1010.4453125 288.3828125 1010.4453125 286.125 1012.125 C282.60299975 1014.78458312 279.12494255 1017.48165845 275.6875 1020.25 C274.12892538 1021.504891 272.56671492 1022.75528694 271 1024 C270.28457031 1024.57234375 269.56914063 1025.1446875 268.83203125 1025.734375 C267 1027 267 1027 265 1027 C265 1027.66 265 1028.32 265 1029 C263.68 1029.33 262.36 1029.66 261 1030 C261 1030.66 261 1031.32 261 1032 C260.01 1032 259.02 1032 258 1032 C258 1032.66 258 1033.32 258 1034 C256.3828125 1035.26171875 256.3828125 1035.26171875 254.125 1036.6875 C250.66199064 1038.91994314 247.24675575 1041.19399673 243.875 1043.5625 C242.62396484 1044.44035156 242.62396484 1044.44035156 241.34765625 1045.3359375 C239.32365637 1046.77058633 237.31687306 1048.22569772 235.3125 1049.6875 C232.60074672 1051.63439979 229.78788276 1053.29546495 226.86328125 1054.91015625 C224.76991362 1056.13457883 222.80503389 1057.4927918 220.8125 1058.875 C216.38715455 1061.87548976 211.74145677 1064.15922023 206.93359375 1066.48046875 C203.40687124 1068.30722648 200.23276644 1070.45340267 197.03515625 1072.80078125 C194.70254818 1074.17527392 192.66296598 1074.60634416 190 1075 C190 1075.66 190 1076.32 190 1077 C189.01 1077.4125 188.02 1077.825 187 1078.25 C182.06075311 1080.3696768 177.1741175 1082.62687316 172.625 1085.5 C170.24140574 1086.86205386 167.99138306 1087.82586473 165.4375 1088.8125 C161.51387925 1090.3318843 157.80207285 1092.07193452 154.0625 1094 C149.38375267 1096.38418925 144.71829693 1098.29353259 139.76171875 1100.01171875 C136.8970273 1101.03684879 134.11239261 1102.18476225 131.3125 1103.375 C120.74929322 1107.82194586 110.07116289 1111.83698847 99.0625 1115.04296875 C96.71623091 1115.77617784 94.46835132 1116.57260802 92.1796875 1117.45703125 C87.89699264 1119.08720192 83.54836216 1120.31503548 79.125 1121.5 C77.53361177 1121.93270326 75.94246352 1122.3662901 74.3515625 1122.80078125 C73.5977832 1123.00654785 72.84400391 1123.21231445 72.06738281 1123.42431641 C69.52953348 1124.13100615 67.01424469 1124.90129968 64.5 1125.6875 C60.57852715 1126.88535604 56.65288406 1127.71352174 52.625 1128.46875 C49.76121602 1129.04832533 46.95239889 1129.76369821 44.125 1130.5 C36.95729943 1132.32167614 29.73507992 1133.44484058 22.42578125 1134.53125 C21.25402344 1134.7065625 20.08226562 1134.881875 18.875 1135.0625 C17.26238281 1135.29646484 17.26238281 1135.29646484 15.6171875 1135.53515625 C13.02931802 1135.86704544 13.02931802 1135.86704544 11 1137 C8.10248237 1137.44206233 5.19915307 1137.78570931 2.28833008 1138.12695312 C1.14787231 1138.26133789 1.14787231 1138.26133789 -0.015625 1138.3984375 C-0.82451172 1138.49350586 -1.63339844 1138.58857422 -2.46679688 1138.68652344 C-5.01951869 1139.00241538 -7.56343298 1139.36026055 -10.109375 1139.7265625 C-24.13183449 1141.66908375 -38.11769002 1142.54553738 -52.25 1143.1875 C-53.18010895 1143.2302002 -54.1102179 1143.27290039 -55.06851196 1143.31689453 C-72.10708908 1144.08369534 -88.94932165 1143.96985046 -105.98706055 1143.20043945 C-109.086874 1143.06140678 -112.18695037 1142.92990327 -115.28710938 1142.79882812 C-117.26564502 1142.71138937 -119.24416146 1142.62351472 -121.22265625 1142.53515625 C-122.14554947 1142.49656998 -123.06844269 1142.4579837 -124.01930237 1142.41822815 C-124.87797409 1142.37826218 -125.73664581 1142.3382962 -126.62133789 1142.29711914 C-127.74832848 1142.24715538 -127.74832848 1142.24715538 -128.89808655 1142.19618225 C-131.02128425 1141.99801343 -132.94281345 1141.548307 -135 1141 C-136.62308068 1140.80443584 -138.2500935 1140.64001883 -139.87890625 1140.5 C-140.79994141 1140.4175 -141.72097656 1140.335 -142.66992188 1140.25 C-144.60218461 1140.08299822 -146.53447645 1139.91633289 -148.46679688 1139.75 C-149.38654297 1139.6675 -150.30628906 1139.585 -151.25390625 1139.5 C-152.09252197 1139.4278125 -152.9311377 1139.355625 -153.79516602 1139.28125 C-156 1139 -156 1139 -159 1138 C-160.66484573 1137.86993393 -162.33214123 1137.77041912 -164 1137.6875 C-170.35802498 1137.20432078 -176.41627487 1135.9562165 -182.62768555 1134.5871582 C-188.85621352 1133.21823056 -195.09751498 1132.05450128 -201.39331055 1131.03955078 C-205.42690222 1130.3667023 -209.14035481 1129.33433448 -213 1128 C-215.33247761 1127.66073053 -217.66585471 1127.32759934 -220 1127 C-223.18314139 1126.17677378 -226.22985555 1125.32644531 -229.2578125 1124.04296875 C-232.54220065 1122.79377838 -235.82590491 1122.04017579 -239.25 1121.25 C-246.75907326 1119.45442802 -253.92824939 1117.01203712 -261.17578125 1114.37109375 C-264.11237831 1113.30330512 -267.05468135 1112.35145955 -270.0625 1111.5 C-288.63681262 1106.12072718 -306.59610051 1097.79729748 -323.796875 1089.0859375 C-326.81216554 1087.59967727 -329.90770876 1086.31708701 -333 1085 C-336.68259082 1083.25076936 -340.27366725 1081.44570419 -343.75 1079.3125 C-345.87482994 1078.07301587 -347.59632085 1077.44512577 -350 1077 C-350 1076.34 -350 1075.68 -350 1075 C-350.69867188 1074.91105469 -351.39734375 1074.82210938 -352.1171875 1074.73046875 C-355.63941268 1073.8379808 -358.07321769 1072.28078711 -361.125 1070.3125 C-365.05671637 1067.81361199 -368.99539893 1065.41158806 -373.125 1063.25 C-387.99527241 1055.24458562 -401.88269166 1045.49046105 -415.60595703 1035.68896484 C-417.32883519 1034.47349767 -419.0660475 1033.27825678 -420.81201172 1032.09619141 C-422.18703857 1031.16105713 -422.18703857 1031.16105713 -423.58984375 1030.20703125 C-424.85429321 1029.35782104 -424.85429321 1029.35782104 -426.14428711 1028.49145508 C-426.75667236 1027.9992749 -427.36905762 1027.50709473 -428 1027 C-428 1026.34 -428 1025.68 -428 1025 C-428.53625 1024.7525 -429.0725 1024.505 -429.625 1024.25 C-432.5823982 1022.69347463 -435.29724051 1020.96564327 -438 1019 C-438 1018.34 -438 1017.68 -438 1017 C-438.66 1016.814375 -439.32 1016.62875 -440 1016.4375 C-443.67197679 1014.67801112 -446.24951032 1012.30016355 -449.23046875 1009.55859375 C-450.92814506 1007.92943284 -450.92814506 1007.92943284 -453 1007 C-453 1006.34 -453 1005.68 -453 1005 C-453.99 1004.67 -454.98 1004.34 -456 1004 C-456 1003.34 -456 1002.68 -456 1002 C-456.54398438 1001.77441406 -457.08796875 1001.54882812 -457.6484375 1001.31640625 C-460.73640119 999.58776213 -463.04454974 997.35449856 -465.625 994.9375 C-469.04209753 991.58466353 -469.04209753 991.58466353 -473 989 C-473 988.34 -473 987.68 -473 987 C-473.66 987 -474.32 987 -475 987 C-475 986.34 -475 985.68 -475 985 C-475.99 984.67 -476.98 984.34 -478 984 C-478 983.34 -478 982.68 -478 982 C-478.639375 981.731875 -479.27875 981.46375 -479.9375 981.1875 C-482 980 -482 980 -483 977 C-483.66 976.67 -484.32 976.34 -485 976 C-487 975 -487 975 -488 972 C-488.66 971.67 -489.32 971.34 -490 971 C-492 970 -492 970 -493 967 C-493.99 966.67 -494.98 966.34 -496 966 C-496 965.34 -496 964.68 -496 964 C-496.66 964 -497.32 964 -498 964 C-498 963.34 -498 962.68 -498 962 C-498.66 962 -499.32 962 -500 962 C-501.515625 960.49609375 -501.515625 960.49609375 -503.25 958.4375 C-503.86488281 957.71175781 -504.47976563 956.98601563 -505.11328125 956.23828125 C-505.73589844 955.49964844 -506.35851562 954.76101563 -507 954 C-507.59167969 953.33355469 -508.18335938 952.66710937 -508.79296875 951.98046875 C-509.33566406 951.36816406 -509.87835938 950.75585938 -510.4375 950.125 C-510.93121094 949.57070313 -511.42492187 949.01640625 -511.93359375 948.4453125 C-513 947 -513 947 -513 945 C-513.99 944.67 -514.98 944.34 -516 944 C-517.56420147 942.28561252 -519.05612002 940.5043823 -520.5 938.6875 C-521.2734375 937.72199219 -522.046875 936.75648438 -522.84375 935.76171875 C-523.5553125 934.85035156 -524.266875 933.93898438 -525 933 C-525.5878125 932.26394531 -526.175625 931.52789063 -526.78125 930.76953125 C-528 929 -528 929 -528 927 C-528.66 927 -529.32 927 -530 927 C-531.5078125 925.3203125 -531.5078125 925.3203125 -533.125 923.125 C-533.66382813 922.40570312 -534.20265625 921.68640625 -534.7578125 920.9453125 C-536 919 -536 919 -536 917 C-536.66 917 -537.32 917 -538 917 C-539.23339844 915.58227539 -539.23339844 915.58227539 -540.609375 913.59765625 C-541.11436523 912.87586182 -541.61935547 912.15406738 -542.13964844 911.41040039 C-542.67106445 910.63559326 -543.20248047 909.86078613 -543.75 909.0625 C-544.28915039 908.28575928 -544.82830078 907.50901855 -545.38378906 906.70874023 C-546.92930716 904.47707748 -548.46532008 902.23912317 -550 900 C-551.051875 898.4840625 -551.051875 898.4840625 -552.125 896.9375 C-556 891.27403846 -556 891.27403846 -556 889 C-556.66 889 -557.32 889 -558 889 C-559.14501953 887.57885742 -559.14501953 887.57885742 -560.3828125 885.60546875 C-560.82753906 884.89712891 -561.27226563 884.18878906 -561.73046875 883.45898438 C-562.19066406 882.70939453 -562.65085937 881.95980469 -563.125 881.1875 C-563.59292969 880.44951172 -564.06085938 879.71152344 -564.54296875 878.95117188 C-568 873.38263028 -568 873.38263028 -568 870 C-568.66 870 -569.32 870 -570 870 C-570.81837442 868.58671871 -571.62946219 867.16921654 -572.4375 865.75 C-572.88996094 864.96109375 -573.34242188 864.1721875 -573.80859375 863.359375 C-574.89311602 861.21166532 -575.53148716 859.34794939 -576 857 C-576.66 857 -577.32 857 -578 857 C-578.40992188 856.16855469 -578.81984375 855.33710937 -579.2421875 854.48046875 C-579.78101563 853.39378906 -580.31984375 852.30710937 -580.875 851.1875 C-581.40867187 850.10855469 -581.94234375 849.02960937 -582.4921875 847.91796875 C-583.97221139 844.92161735 -583.97221139 844.92161735 -586 842 C-586 841.01 -586 840.02 -586 839 C-586.66 839 -587.32 839 -588 839 C-588.25007813 838.32324219 -588.50015625 837.64648438 -588.7578125 836.94921875 C-590.23662216 833.4382084 -592.04115241 830.14549895 -593.875 826.8125 C-596.60151283 821.78750885 -599.00164922 816.81472952 -601.0078125 811.453125 C-602.1773356 808.5615482 -603.57119837 805.83480168 -605 803.0625 C-607.38287033 798.38634092 -609.29249079 793.7241175 -611.0078125 788.76953125 C-612.05064019 785.8586461 -613.22457435 783.03147163 -614.4375 780.1875 C-616.7853325 774.63480411 -618.81854783 769.00191027 -620.80859375 763.3125 C-621.83573436 760.45671234 -622.94675465 757.6705327 -624.125 754.875 C-625.98846218 750.32815228 -627.09567224 745.72557366 -628.21484375 740.94921875 C-629.19542929 737.2659248 -630.61729231 733.86986826 -632.09375 730.36328125 C-633.23798734 727.37938646 -633.8816961 724.40881958 -634.50390625 721.28125 C-635.04261528 718.80403683 -635.74904102 716.42100207 -636.5 714 C-637.6722033 710.18447824 -638.64245649 706.38508051 -639.46484375 702.48046875 C-640.11343129 699.47424183 -640.84360984 696.49016634 -641.5625 693.5 C-642.6168641 688.976778 -643.33943936 684.58758947 -643.7578125 679.96875 C-644.13750925 676.88218287 -645.12660052 673.97983352 -646 671 C-647.38364938 664.60312822 -648.2017218 658.26043591 -648.71875 651.7421875 C-649.00094599 648.99077663 -649.4652978 646.33782734 -650 643.625 C-651.01882322 638.37994712 -651.43659349 633.17721554 -651.75390625 627.84765625 C-651.89941605 625.14975817 -651.89941605 625.14975817 -652.49780273 623.20507812 C-653.13561506 620.4045332 -653.20086806 617.74239636 -653.28125 614.87109375 C-653.31863281 613.67033203 -653.35601563 612.46957031 -653.39453125 611.23242188 C-653.42933594 609.98009766 -653.46414063 608.72777344 -653.5 607.4375 C-653.76935033 597.39003256 -653.76935033 597.39003256 -654.5234375 587.37109375 C-655.10878048 581.45075206 -655.14707433 575.57035161 -655.125 569.625 C-655.12886719 568.59117187 -655.13273438 567.55734375 -655.13671875 566.4921875 C-655.12872732 560.06707411 -654.78805049 553.73501207 -654.24951172 547.33398438 C-653.72608483 540.3399359 -653.59857574 533.32375911 -653.39453125 526.31445312 C-653.35714844 525.16783203 -653.31976562 524.02121094 -653.28125 522.83984375 C-653.25095703 521.81238037 -653.22066406 520.78491699 -653.18945312 519.72631836 C-653.022472 517.32338252 -652.61687362 515.31327607 -652 513 C-651.80557652 511.44984403 -651.64077824 509.89578897 -651.5 508.33984375 C-651.4175 507.46392578 -651.335 506.58800781 -651.25 505.68554688 C-651.08298088 503.8496414 -650.91631569 502.0137037 -650.75 500.17773438 C-650.6675 499.30310547 -650.585 498.42847656 -650.5 497.52734375 C-650.4278125 496.73062256 -650.355625 495.93390137 -650.28125 495.11303711 C-650 493 -650 493 -649 490 C-648.82167153 487.98177462 -648.68062808 485.96014196 -648.5625 483.9375 C-648.2162905 479.10121963 -647.63465738 474.50344308 -646.59375 469.7734375 C-645.99575177 466.98015628 -645.48987887 464.17655221 -644.99169922 461.36401367 C-643.67537641 453.99979228 -641.96003247 446.83977884 -639.9609375 439.625 C-639.05859516 436.22104192 -638.31702249 432.82697099 -637.625 429.375 C-634.5509644 414.62297046 -629.87684412 400.2397596 -625 386 C-624.5709048 384.69988103 -624.14386331 383.39908266 -623.71875 382.09765625 C-621.68268573 375.87178978 -619.59072286 369.70087704 -617.08984375 363.64453125 C-615.99270255 360.98229257 -614.93984549 358.30423463 -613.88818359 355.6237793 C-610.15160855 346.14368439 -606.00125473 336.89523863 -601.375 327.8125 C-599.72901565 324.57295119 -598.30433836 321.32877974 -597 317.9375 C-595.40479929 313.8309793 -593.47913486 310.09013791 -591.28125 306.27734375 C-589.94954202 303.91031402 -588.75101228 301.50428323 -587.5625 299.0625 C-585.36136842 294.59035965 -582.86849857 290.35843971 -580.234375 286.12890625 C-578.86533364 283.9331513 -578.86533364 283.9331513 -578 281 C-577.34 281 -576.68 281 -576 281 C-575.67 279.35 -575.34 277.7 -575 276 C-574.34 276 -573.68 276 -573 276 C-572.87866699 275.41766602 -572.75733398 274.83533203 -572.63232422 274.23535156 C-571.98162204 271.93503144 -571.12571425 270.26934744 -569.8828125 268.234375 C-569.22841187 267.15917603 -569.22841187 267.15917603 -568.56079102 266.06225586 C-568.08697998 265.29921143 -567.61316895 264.53616699 -567.125 263.75 C-566.63249756 262.95150635 -566.13999512 262.1530127 -565.63256836 261.33032227 C-561.12918544 254.09210303 -556.36971312 247.05397206 -551.46191406 240.08544922 C-549.86471358 237.80701126 -548.28740123 235.515485 -546.7109375 233.22265625 C-545.62021982 231.64814082 -544.52908368 230.07391518 -543.4375 228.5 C-542.92453369 227.75097412 -542.41156738 227.00194824 -541.88305664 226.23022461 C-540.63919754 224.45043969 -539.32585702 222.71957058 -538 221 C-537.34 221 -536.68 221 -536 221 C-535.62875 220.195625 -535.62875 220.195625 -535.25 219.375 C-533.69347463 216.4176018 -531.96564327 213.70275949 -530 211 C-529.34 211 -528.68 211 -528 211 C-527.7215625 210.01 -527.7215625 210.01 -527.4375 209 C-525.67801112 205.32802321 -523.30016355 202.75048968 -520.55859375 199.76953125 C-518.92943284 198.07185494 -518.92943284 198.07185494 -518 196 C-517.34 196 -516.68 196 -516 196 C-515.67 195.01 -515.34 194.02 -515 193 C-514.34 193 -513.68 193 -513 193 C-512.75121094 192.44441406 -512.50242187 191.88882813 -512.24609375 191.31640625 C-510.77904015 188.58925018 -509.01113998 186.34336277 -507.0625 183.9375 C-506.37285156 183.08027344 -505.68320312 182.22304687 -504.97265625 181.33984375 C-501.76049374 177.52977376 -501.76049374 177.52977376 -500 176 C-499.34 176 -498.68 176 -498 176 C-498 175.34 -498 174.68 -498 174 C-496.625 172.375 -496.625 172.375 -495 171 C-494.34 171 -493.68 171 -493 171 C-492.731875 170.360625 -492.46375 169.72125 -492.1875 169.0625 C-491 167 -491 167 -488 166 C-487.67 165.34 -487.34 164.68 -487 164 C-486 162 -486 162 -483 161 C-482.67 160.34 -482.34 159.68 -482 159 C-481 157 -481 157 -478 156 C-478 155.34 -478 154.68 -478 154 C-476.625 152.375 -476.625 152.375 -475 151 C-474.34 151 -473.68 151 -473 151 C-473 150.34 -473 149.68 -473 149 C-471.49609375 147.484375 -471.49609375 147.484375 -469.4375 145.75 C-468.71175781 145.13511719 -467.98601562 144.52023438 -467.23828125 143.88671875 C-466.49964844 143.26410156 -465.76101563 142.64148438 -465 142 C-464.33355469 141.40832031 -463.66710937 140.81664062 -462.98046875 140.20703125 C-462.36816406 139.66433594 -461.75585938 139.12164062 -461.125 138.5625 C-460.29355469 137.82193359 -460.29355469 137.82193359 -459.4453125 137.06640625 C-458 136 -458 136 -456 136 C-455.67 135.01 -455.34 134.02 -455 133 C-454.34 133 -453.68 133 -453 133 C-453 132.34 -453 131.68 -453 131 C-451.5234375 129.66015625 -451.5234375 129.66015625 -449.375 128.0625 C-446.33724746 125.77570702 -443.32231969 123.47155403 -440.35546875 121.09375 C-439.72914551 120.59351318 -439.10282227 120.09327637 -438.45751953 119.57788086 C-437.20211082 118.57397441 -435.94914184 117.56700881 -434.69873047 116.55688477 C-430.2235589 113 -430.2235589 113 -428 113 C-428 112.34 -428 111.68 -428 111 C-426.64575195 109.81420898 -426.64575195 109.81420898 -424.73828125 108.49609375 C-423.68858154 107.76326172 -423.68858154 107.76326172 -422.61767578 107.015625 C-421.85696777 106.49484375 -421.09625977 105.9740625 -420.3125 105.4375 C-419.14436768 104.62732422 -419.14436768 104.62732422 -417.95263672 103.80078125 C-416.37048425 102.70422064 -414.78650343 101.6102932 -413.20068359 100.51904297 C-411.33958062 99.23439878 -409.48875487 97.93758146 -407.64453125 96.62890625 C-398.92987949 90.48468218 -389.92423004 84.82662486 -380.87841797 79.18579102 C-379.2361064 78.14904715 -377.6159833 77.0773222 -376 76 C-375.01 76 -374.02 76 -373 76 C-373 75.34 -373 74.68 -373 74 C-368.3369887 71.32689395 -363.67007805 68.66073914 -359 66 C-358.08992188 65.48050781 -357.17984375 64.96101563 -356.2421875 64.42578125 C-355.48164063 63.99652344 -354.72109375 63.56726563 -353.9375 63.125 C-353.28652344 62.75632812 -352.63554687 62.38765625 -351.96484375 62.0078125 C-350 61 -350 61 -347.703125 60.109375 C-344.26513455 58.69840782 -341.06317785 56.91363666 -337.8125 55.125 C-332.70716093 52.35393851 -327.64005272 49.90789112 -322.1953125 47.859375 C-319.39962083 46.76497613 -316.76860385 45.42860012 -314.10253906 44.05371094 C-307.30935856 40.64923265 -300.23882655 37.81820661 -293.1875 35 C-291.87700684 34.47563354 -291.87700684 34.47563354 -290.54003906 33.94067383 C-284.90456633 31.70557565 -279.2439635 29.64624112 -273.46875 27.796875 C-269.24464592 26.43339837 -265.11893096 24.8197025 -260.98046875 23.21875 C-260.30628906 22.9609375 -259.63210938 22.703125 -258.9375 22.4375 C-258.34839844 22.20933594 -257.75929688 21.98117188 -257.15234375 21.74609375 C-254.80383157 20.93199969 -252.42940423 20.24558355 -250.03686523 19.57348633 C-247.78265198 18.93880493 -245.53393911 18.28646831 -243.28515625 17.6328125 C-232.57032518 14.53325271 -221.84774083 11.59881705 -211 9 C-209.82566406 8.71125 -208.65132813 8.4225 -207.44140625 8.125 C-201.94215821 6.80263747 -196.60388624 5.75318841 -190.97265625 5.2421875 C-187.88028323 4.86252982 -184.98046317 3.88891007 -182 3 C-175.40091855 1.38246316 -168.92703959 0.72419885 -162.15625 0.28125 C-158.55201697 -0.03991928 -155.14372284 -0.74688101 -151.6171875 -1.52734375 C-147.40102162 -2.28877072 -143.15532331 -2.50167368 -138.8828125 -2.75390625 C-136.15248085 -2.8991467 -136.15248085 -2.8991467 -134.18481445 -3.49780273 C-131.48350491 -4.11872057 -128.93101661 -4.19955601 -126.16015625 -4.28125 C-124.44022461 -4.33732422 -124.44022461 -4.33732422 -122.68554688 -4.39453125 C-120.89213867 -4.44673828 -120.89213867 -4.44673828 -119.0625 -4.5 C-112.092243 -4.7089916 -105.14706208 -4.9546161 -98.1953125 -5.51953125 C-68.78464795 -7.90327993 -28.23257417 -9.41085806 0 0 Z M-129 79 C-131.40615259 79.26189197 -133.81374961 79.51087788 -136.22265625 79.74609375 C-156.10080829 80.73155675 -156.10080829 80.73155675 -175 86 C-176.85625 86.1546875 -176.85625 86.1546875 -178.75 86.3125 C-184.25010349 86.86251035 -189.35505398 88.44631311 -194.63671875 90.0234375 C-197.35909789 90.81390763 -200.03927377 91.48939896 -202.8125 92.0625 C-206.51135417 92.83651948 -210.01091451 93.9434859 -213.56640625 95.21875 C-216.30478521 96.09784437 -219.07814183 96.7709216 -221.87036133 97.45556641 C-225.30422636 98.33342024 -228.68101116 99.37811989 -232.0625 100.4375 C-232.73087891 100.64181641 -233.39925781 100.84613281 -234.08789062 101.05664062 C-238.52749341 102.4415896 -242.72238276 104.16533389 -247 106 C-249.13647014 106.67616323 -251.28250792 107.32291842 -253.4375 107.9375 C-257.91697718 109.28236587 -261.94456642 110.79407128 -266.0546875 113.00390625 C-268.26104574 114.133668 -270.50353159 115.03635089 -272.8125 115.9375 C-278.30624611 118.09516463 -283.64909077 120.51135228 -289 123 C-289.69303223 123.31598145 -290.38606445 123.63196289 -291.10009766 123.95751953 C-300.28799954 128.14770334 -309.19443037 132.49757936 -317.77709961 137.83056641 C-321.53349462 140.15753677 -325.32202933 142.21099562 -329.3125 144.125 C-334.00384948 146.4050833 -338.12560995 149.03794439 -342.3359375 152.10546875 C-345.32099437 154.22827312 -348.40004205 156.17711859 -351.5 158.125 C-358.24686365 162.3889193 -364.69724923 167.03179986 -371.13476562 171.74658203 C-371.86888672 172.28395996 -372.60300781 172.82133789 -373.359375 173.375 C-374.01389648 173.85710937 -374.66841797 174.33921875 -375.34277344 174.8359375 C-377 176 -377 176 -379 177 C-379 177.66 -379 178.32 -379 179 C-379.53625 179.2475 -380.0725 179.495 -380.625 179.75 C-383.5823982 181.30652537 -386.29724051 183.03435673 -389 185 C-389 185.66 -389 186.32 -389 187 C-389.54527344 187.2371875 -390.09054687 187.474375 -390.65234375 187.71875 C-393.60315433 189.32917574 -395.98704217 191.34152106 -398.5625 193.5 C-401.32911711 195.81239639 -403.99876548 197.99917699 -407 200 C-407 200.66 -407 201.32 -407 202 C-407.53367187 202.20496094 -408.06734375 202.40992188 -408.6171875 202.62109375 C-411.99937434 204.57832646 -414.43037488 207.2596965 -417.125 210.0625 C-422.76013514 215.88006757 -422.76013514 215.88006757 -425 217 C-425 217.66 -425 218.32 -425 219 C-425.66 219 -426.32 219 -427 219 C-428.66666667 220.33333333 -428.66666667 220.33333333 -430 222 C-430 222.66 -430 223.32 -430 224 C-430.66 224 -431.32 224 -432 224 C-433.53457367 225.51719983 -433.53457367 225.51719983 -435.125 227.5 C-438.37893881 231.3499234 -441.84772718 234.86064335 -445.49609375 238.3359375 C-447.22350093 239.87347684 -447.22350093 239.87347684 -447 242 C-447.66 242 -448.32 242 -449 242 C-450.51984883 243.67535459 -451.96706453 245.41705622 -453.375 247.1875 C-454.14585937 248.15042969 -454.91671875 249.11335937 -455.7109375 250.10546875 C-456.46632813 251.06066406 -457.22171875 252.01585937 -458 253 C-459.13308594 254.35544922 -459.13308594 254.35544922 -460.2890625 255.73828125 C-462.20110021 257.79317767 -462.20110021 257.79317767 -462 260 C-462.66 260 -463.32 260 -464 260 C-466.61169726 262.74830912 -468.75526272 265.9514041 -471 269 C-471.474375 269.64388672 -471.94875 270.28777344 -472.4375 270.95117188 C-482.48476207 284.62800736 -492.02474065 298.59526278 -501 313 C-501.51175781 313.81726563 -502.02351563 314.63453125 -502.55078125 315.4765625 C-505.86351431 320.86938375 -508.72453275 326.3961964 -511.5078125 332.078125 C-512.85883691 334.72358642 -514.30919947 337.22779157 -515.875 339.75 C-521.44937325 348.84503004 -526.23162824 358.54438964 -530.0078125 368.51953125 C-531.21416857 371.53542141 -532.60463147 374.44194924 -534 377.375 C-536.45261233 382.61382936 -538.39109067 387.86123062 -540.13671875 393.37109375 C-541 396 -541 396 -542.5 399.4375 C-544.34104364 403.80997866 -545.66746695 408.26781609 -547.03125 412.80859375 C-547.80930462 415.37178176 -548.62905356 417.90512856 -549.5 420.4375 C-551.21481602 425.48824226 -552.61322832 430.62612647 -554.03515625 435.765625 C-555 439 -555 439 -556.02734375 441.45703125 C-557.28002733 444.73211966 -557.86148563 447.99160453 -558.5 451.4375 C-559.37044229 456.12558862 -560.48468155 460.48561379 -562 465 C-562.36820869 467.1706211 -562.36820869 467.1706211 -562.5 469.25 C-563.10661546 475.582214 -564.3628107 481.74850799 -566.0625 487.875 C-567.22484397 492.3155172 -567.46727902 496.79479421 -567.75390625 501.36328125 C-568 504 -568 504 -569 507 C-569.2037422 508.7852203 -569.3649799 510.57545873 -569.5 512.3671875 C-569.62375 513.94306641 -569.62375 513.94306641 -569.75 515.55078125 C-569.8325 516.64777344 -569.915 517.74476563 -570 518.875 C-570.16392121 521.03927219 -570.33049463 523.2033455 -570.5 525.3671875 C-570.60828125 526.80747314 -570.60828125 526.80747314 -570.71875 528.27685547 C-571 531 -571 531 -571.50849915 533.27865601 C-572.05860482 536.32448342 -572.13446227 539.16931233 -572.14526367 542.26464844 C-572.15164352 543.5107489 -572.15802338 544.75684937 -572.16459656 546.04071045 C-572.16612717 547.39693157 -572.16724009 548.75315321 -572.16796875 550.109375 C-572.17118847 551.51881951 -572.17455306 552.92826369 -572.17805481 554.33770752 C-572.18403858 557.29659801 -572.18589591 560.25545936 -572.18530273 563.21435547 C-572.18522199 566.21669609 -572.19207885 569.21888247 -572.20581055 572.22119141 C-572.42660973 593.53454635 -572.42660973 593.53454635 -570.48583984 614.72998047 C-569.80805886 619.29188924 -569.53142416 623.86071251 -569.24609375 628.4609375 C-569.08360275 631.12124572 -569.08360275 631.12124572 -568 634 C-567.845364 635.72676868 -567.7252657 637.45672296 -567.625 639.1875 C-567.22854271 644.41178395 -566.46926788 649.48323705 -565.5 654.625 C-565.36932129 655.32391357 -565.23864258 656.02282715 -565.10400391 656.74291992 C-564.3909614 660.47957034 -564.3909614 660.47957034 -563 664 C-562.896875 665.2375 -562.79375 666.475 -562.6875 667.75 C-562.14617348 673.23425886 -560.55691239 678.31912968 -558.9375 683.5703125 C-558 687 -558 687 -557.5 690.6171875 C-557.03280066 693.77808305 -556.24686215 696.08603697 -555 699 C-554.3500145 701.13839766 -553.72716144 703.2851461 -553.125 705.4375 C-552.60292969 707.28214844 -552.60292969 707.28214844 -552.0703125 709.1640625 C-551.36905777 711.67731851 -550.67603628 714.19288968 -549.9921875 716.7109375 C-548.36760367 722.60804887 -546.63545742 728.13826103 -544 733.65625 C-542.75782817 736.56759022 -541.89144986 739.52599892 -541 742.5625 C-539.68031006 747.00614346 -538.18630382 750.98106721 -535.99609375 755.0546875 C-534.866332 757.26104574 -533.96364911 759.50353159 -533.0625 761.8125 C-527.5492869 775.84998873 -520.80361322 789.54444646 -514 803 C-513.34 803 -512.68 803 -512 803 C-511.87326904 803.58700684 -511.74653809 804.17401367 -511.6159668 804.77880859 C-510.62484618 808.35281388 -508.65180132 811.43034559 -506.8125 814.625 C-506.19749634 815.70285767 -506.19749634 815.70285767 -505.57006836 816.80249023 C-504.38587288 818.87174787 -503.19418822 820.93649751 -502 823 C-501.47921875 823.90621094 -500.9584375 824.81242188 -500.421875 825.74609375 C-493.40608671 837.70115827 -485.37601524 849.00428492 -477.20288086 860.18554688 C-476.67057861 860.91451172 -476.13827637 861.64347656 -475.58984375 862.39453125 C-474.87622681 863.36676636 -474.87622681 863.36676636 -474.14819336 864.35864258 C-473 866 -473 866 -472 868 C-471.34 868 -470.68 868 -470 868 C-469.7525 868.53625 -469.505 869.0725 -469.25 869.625 C-467.69347463 872.5823982 -465.96564327 875.29724051 -464 878 C-463.34 878 -462.68 878 -462 878 C-461 880 -460 882 -459 884 C-458.34 884 -457.68 884 -457 884 C-456.731875 884.57234375 -456.46375 885.1446875 -456.1875 885.734375 C-454.95867364 888.07884634 -453.57477824 890.12404938 -452 892.25 C-451.484375 892.95640625 -450.96875 893.6628125 -450.4375 894.390625 C-449.963125 894.92171875 -449.48875 895.4528125 -449 896 C-448.34 896 -447.68 896 -447 896 C-447 896.66 -447 897.32 -447 898 C-446.34 898 -445.68 898 -445 898 C-444.77441406 898.55429687 -444.54882812 899.10859375 -444.31640625 899.6796875 C-442.61133714 902.68506155 -440.42200049 904.72987003 -437.9375 907.125 C-433.09722222 911.80555556 -433.09722222 911.80555556 -432 914 C-431.34 914 -430.68 914 -430 914 C-430 914.66 -430 915.32 -430 916 C-428.58352329 917.4323278 -428.58352329 917.4323278 -426.6875 918.9375 C-422.42465257 922.5368989 -418.5384439 926.4186798 -414.68237305 930.44311523 C-413.49090704 931.66490714 -412.24906136 932.83715331 -411 934 C-410.34 934 -409.68 934 -409 934 C-409 934.66 -409 935.32 -409 936 C-408.34 936 -407.68 936 -407 936 C-407 936.66 -407 937.32 -407 938 C-404.82735345 940.04456059 -404.82735345 940.04456059 -402.125 942.125 C-401.22007812 942.84945312 -400.31515625 943.57390625 -399.3828125 944.3203125 C-397.21344189 946.19205234 -397.21344189 946.19205234 -395 946 C-395 946.66 -395 947.32 -395 948 C-392.36315253 950.39820305 -392.36315253 950.39820305 -389 951 C-389 951.66 -389 952.32 -389 953 C-387.28502228 954.58826222 -387.28502228 954.58826222 -385.125 956.125 C-384.04605469 956.93324219 -384.04605469 956.93324219 -382.9453125 957.7578125 C-381.10373994 959.17939632 -381.10373994 959.17939632 -379 959 C-379 959.66 -379 960.32 -379 961 C-377.35639407 962.40216945 -377.35639407 962.40216945 -375.1953125 963.79296875 C-374.38320313 964.34146484 -373.57109375 964.88996094 -372.734375 965.45507812 C-371.87328125 966.02677734 -371.0121875 966.59847656 -370.125 967.1875 C-368.4605416 968.30540035 -366.79648032 969.42389219 -365.1328125 970.54296875 C-364.28380371 971.11136475 -363.43479492 971.67976074 -362.56005859 972.26538086 C-360.05336049 973.96384453 -357.57964483 975.70221946 -355.109375 977.453125 C-349.56614356 981.34747538 -343.86751614 984.97067012 -338.125 988.5625 C-336.62646484 989.51286133 -336.62646484 989.51286133 -335.09765625 990.48242188 C-329.10045772 994.23937657 -323.03612239 997.6031129 -316.65649414 1000.66821289 C-314.10818638 1001.94576264 -311.71953743 1003.35070704 -309.3125 1004.875 C-303.4716716 1008.47008178 -297.2734564 1011.24669334 -291.0546875 1014.11328125 C-287.86904621 1015.582957 -284.73914799 1017.13322987 -281.625 1018.75 C-277.37889661 1020.90560274 -273.02570507 1022.52501679 -268.53515625 1024.09765625 C-264.20624445 1025.63845537 -260.04893063 1027.51749191 -255.875 1029.4375 C-251.60554483 1031.26996527 -247.16087113 1032.50280657 -242.71484375 1033.83203125 C-239.38273448 1034.87966603 -236.11326647 1036.02186637 -232.83325195 1037.21801758 C-224.65793001 1040.19737316 -216.49329918 1042.54825237 -208.0234375 1044.5234375 C-204.4863396 1045.35649917 -200.96264685 1046.24299404 -197.4375 1047.125 C-196.17808594 1047.43695312 -194.91867187 1047.74890625 -193.62109375 1048.0703125 C-191.32394566 1048.66008731 -189.03742814 1049.29447483 -186.76953125 1049.98828125 C-181.64954001 1051.36245507 -176.47675902 1052.19794804 -171.25 1053.0625 C-169.19235534 1053.40544078 -167.13504596 1053.75040116 -165.078125 1054.09765625 C-163.72315918 1054.32207397 -163.72315918 1054.32207397 -162.34082031 1054.55102539 C-160 1055 -160 1055 -157 1056 C-154.99120725 1056.2625392 -152.97701179 1056.48454698 -150.9609375 1056.68359375 C-149.73890625 1056.80669922 -148.516875 1056.92980469 -147.2578125 1057.05664062 C-145.97648437 1057.18232422 -144.69515625 1057.30800781 -143.375 1057.4375 C-140.88268323 1057.68489909 -138.39049642 1057.93361071 -135.8984375 1058.18359375 C-134.59551758 1058.31137207 -133.29259766 1058.43915039 -131.95019531 1058.57080078 C-129.41292329 1058.84648213 -126.87968237 1059.16431125 -124.35449219 1059.53466797 C-110.86410184 1061.45428305 -97.33116709 1061.3051011 -83.73486328 1061.26074219 C-80.20852395 1061.24934819 -76.6824865 1061.25611666 -73.15615749 1061.26762486 C-58.96973575 1061.30693743 -45.05942115 1061.07851703 -31 1059 C-28.5938493 1058.73809071 -26.18625194 1058.48910622 -23.77734375 1058.25390625 C-3.89919171 1057.26844325 -3.89919171 1057.26844325 15 1052 C16.85625 1051.8453125 16.85625 1051.8453125 18.75 1051.6875 C24.23425886 1051.14617348 29.31912968 1049.55691239 34.5703125 1047.9375 C38 1047 38 1047 41.6171875 1046.5 C44.77661521 1046.03301761 47.08719922 1045.24569699 50 1044 C52.09723665 1043.37219975 54.2022945 1042.7702242 56.3125 1042.1875 C61.70766666 1040.66549509 67.08163306 1039.09265307 72.4375 1037.4375 C73.0869458 1037.23987061 73.7363916 1037.04224121 74.40551758 1036.83862305 C78.7531696 1035.48496667 82.83528402 1033.8189571 87 1032 C88.3044887 1031.53916193 89.61633583 1031.09809436 90.9375 1030.6875 C101.40708738 1027.25719151 111.51376509 1023.44798579 121.29296875 1018.35546875 C123.73050302 1017.13494293 126.13501558 1016.13556564 128.6875 1015.1875 C134.44542498 1012.98594045 139.79117454 1010.01994262 145.19995117 1007.0847168 C145.90611572 1006.70226807 146.61228027 1006.31981934 147.33984375 1005.92578125 C148.28911743 1005.40624878 148.28911743 1005.40624878 149.25756836 1004.8762207 C151 1004 151 1004 154 1003 C154 1002.34 154 1001.68 154 1001 C154.51949219 1000.91363281 155.03898438 1000.82726563 155.57421875 1000.73828125 C158.93383219 999.7157902 161.80540992 997.95959265 164.8125 996.1875 C166.00651042 995.49348958 167.20052083 994.79947917 168.39453125 994.10546875 C168.99273682 993.75516602 169.59094238 993.40486328 170.20727539 993.04394531 C171.93809607 992.0360481 173.67982207 991.04695026 175.421875 990.05859375 C179.4767988 987.74433681 183.46370662 985.32544532 187.4375 982.875 C188.16904297 982.43285156 188.90058594 981.99070312 189.65429688 981.53515625 C191.47147442 980.41193353 193.24089693 979.21215506 195 978 C195 977.34 195 976.68 195 976 C195.57218262 975.89494141 196.14436523 975.78988281 196.73388672 975.68164062 C199.36886944 974.88904509 201.04821249 973.72858714 203.2578125 972.09375 C204.04800781 971.51496094 204.83820312 970.93617188 205.65234375 970.33984375 C206.46832031 969.73269531 207.28429687 969.12554688 208.125 968.5 C209.75175788 967.30093433 211.37932319 966.10296309 213.0078125 964.90625 C213.72598145 964.37322266 214.44415039 963.84019531 215.18408203 963.29101562 C217 962 217 962 219 961 C219 960.34 219 959.68 219 959 C219.57878906 958.73058594 220.15757812 958.46117187 220.75390625 958.18359375 C228.10588083 954.3094228 234.38072402 948.04549564 240.65795898 942.64477539 C244.79220138 939.10389931 244.79220138 939.10389931 247 938 C247 937.34 247 936.68 247 936 C247.66 936 248.32 936 249 936 C249 935.34 249 934.68 249 934 C249.55429687 933.77441406 250.10859375 933.54882812 250.6796875 933.31640625 C253.68506155 931.61133714 255.72987003 929.42200049 258.125 926.9375 C262.80555556 922.09722222 262.80555556 922.09722222 265 921 C265 920.34 265 919.68 265 919 C265.66 919 266.32 919 267 919 C268.66666667 917.66666667 268.66666667 917.66666667 270 916 C270 915.34 270 914.68 270 914 C270.66 914 271.32 914 272 914 C273.53457367 912.48280017 273.53457367 912.48280017 275.125 910.5 C278.37893881 906.6500766 281.84772718 903.13935665 285.49609375 899.6640625 C287.22350093 898.12652316 287.22350093 898.12652316 287 896 C287.66 896 288.32 896 289 896 C291.04456059 893.82735345 291.04456059 893.82735345 293.125 891.125 C293.84945312 890.22007812 294.57390625 889.31515625 295.3203125 888.3828125 C297.19205234 886.21344189 297.19205234 886.21344189 297 884 C297.66 884 298.32 884 299 884 C301.39820305 881.36315253 301.39820305 881.36315253 302 878 C302.66 878 303.32 878 304 878 C305.58826222 876.28502228 305.58826222 876.28502228 307.125 874.125 C307.66382813 873.40570312 308.20265625 872.68640625 308.7578125 871.9453125 C310.17939632 870.10373994 310.17939632 870.10373994 310 868 C310.66 868 311.32 868 312 868 C313.40216945 866.35639407 313.40216945 866.35639407 314.79296875 864.1953125 C315.34146484 863.38320313 315.88996094 862.57109375 316.45507812 861.734375 C317.02677734 860.87328125 317.59847656 860.0121875 318.1875 859.125 C319.30540035 857.4605416 320.42389219 855.79648032 321.54296875 854.1328125 C322.11136475 853.28380371 322.67976074 852.43479492 323.26538086 851.56005859 C324.96384453 849.05336049 326.70221946 846.57964483 328.453125 844.109375 C332.34747538 838.56614356 335.97067012 832.86751614 339.5625 827.125 C340.51286133 825.62646484 340.51286133 825.62646484 341.48242188 824.09765625 C345.23937657 818.10045772 348.6031129 812.03612239 351.66821289 805.65649414 C352.94576264 803.10818638 354.35070704 800.71953743 355.875 798.3125 C359.47008178 792.4716716 362.24669334 786.2734564 365.11328125 780.0546875 C366.582957 776.86904621 368.13322987 773.73914799 369.75 770.625 C371.87327291 766.43526416 373.48383105 762.15234387 375.03515625 757.72265625 C376.83590751 752.64118408 378.89520152 747.65688378 380.96484375 742.6796875 C383.54789805 736.393218 385.72888007 729.99555009 387.83984375 723.5390625 C388.74225432 720.78625449 389.67474643 718.04883228 390.625 715.3125 C392.11503018 710.87608245 393.18762099 706.35117814 394.25390625 701.796875 C395 699 395 699 395.99609375 696.60546875 C397.26716197 693.30662632 397.85621087 690.036862 398.5 686.5625 C399.37044229 681.87441138 400.48468155 677.51438621 402 673 C402.36820869 670.8293789 402.36820869 670.8293789 402.5 668.75 C403.10540808 662.43038934 404.35883839 656.30063873 406.0625 650.1875 C407.29696675 645.48109552 407.47579825 640.69681815 407.75390625 635.85546875 C408 633 408 633 409 630 C409.20293838 628.29951023 409.36452557 626.59390829 409.5 624.88671875 C409.5825 623.88576172 409.665 622.88480469 409.75 621.85351562 C409.8325 620.80873047 409.915 619.76394531 410 618.6875 C410.16439388 616.6287235 410.33099704 614.57012202 410.5 612.51171875 C410.5721875 611.59865967 410.644375 610.68560059 410.71875 609.74487305 C411 607 411 607 411.50849915 604.21560669 C411.99627799 601.02435099 412.13360308 598.03149098 412.14526367 594.80541992 C412.15164352 593.59943649 412.15802338 592.39345306 412.16459656 591.15092468 C412.16570938 589.85717422 412.1668222 588.56342377 412.16796875 587.23046875 C412.17118986 585.86729397 412.17455454 584.50411953 412.17805481 583.14094543 C412.18403183 580.28218793 412.18589656 577.42346057 412.18530273 574.56469727 C412.18522196 571.66619561 412.1920858 568.76785363 412.20581055 565.86938477 C412.27620935 550.78116132 412.21015906 535.95834843 410 521 C409.72490299 518.415583 409.46442957 515.8295667 409.21875 513.2421875 C409.09886719 512.02015625 408.97898437 510.798125 408.85546875 509.5390625 C408.614735 507.05765305 408.37787064 504.5758657 408.14453125 502.09375 C407.55530306 496.15078178 406.77094191 490.72097251 405 485 C404.26031242 480.99896262 403.71766349 476.9671242 403.14453125 472.93945312 C402.47243062 468.41903436 401.53677823 464.3233844 400 460 C399.65596692 457.66822025 399.32050798 455.33512959 399 453 C398.67 452.67 398.34 452.34 398 452 C397.77480313 450.06974111 397.55251748 448.13870558 397.37890625 446.203125 C396.93215963 443.60554671 395.99908306 441.43776266 395 439 C394.3944583 436.94391068 393.81333988 434.88055034 393.25 432.8125 C391.41421592 426.27380838 389.3266683 419.84680385 387.14599609 413.41577148 C385.7952885 409.42340312 384.51755172 405.43324381 383.375 401.375 C382.30705532 397.70276916 380.81220316 394.53703491 379.0234375 391.16796875 C377.83163963 388.64335875 377.01997051 386.10211714 376.1875 383.4375 C374.01924974 376.70495639 371.06882125 370.43677818 368.00146484 364.08398438 C366.16193606 360.25604247 364.36657388 356.40724101 362.5625 352.5625 C361.37574289 350.04131605 360.18783421 347.52067674 359 345 C358.34 345 357.68 345 357 345 C356.91105469 344.31164062 356.82210937 343.62328125 356.73046875 342.9140625 C355.83753849 339.35189153 354.1833459 336.49221574 352.3125 333.375 C351.57446278 332.11911076 350.83749216 330.86259414 350.1015625 329.60546875 C349.7396582 328.98978027 349.37775391 328.3740918 349.00488281 327.73974609 C347.66663326 325.42284466 346.42876361 323.05751503 345.1875 320.6875 C342.04740007 314.85961371 338.42414177 309.35896608 334.78198242 303.83666992 C334.0932605 302.79023315 334.0932605 302.79023315 333.390625 301.72265625 C332.97844727 301.10140869 332.56626953 300.48016113 332.14160156 299.84008789 C330.96532975 297.94411683 329.96715641 296.00954227 329 294 C328.34 294 327.68 294 327 294 C326.690625 293.21625 326.38125 292.4325 326.0625 291.625 C325.07124962 289.07669872 325.07124962 289.07669872 324 287 C323.34 287 322.68 287 322 287 C321.731875 286.278125 321.46375 285.55625 321.1875 284.8125 C320.00098638 282.00233617 318.72514361 279.51583443 317 277 C316.34 277 315.68 277 315 277 C314.76796875 276.29488281 314.5359375 275.58976563 314.296875 274.86328125 C312.74085999 271.42786257 310.71587421 269.03820004 308.25 266.1875 C304.68277052 262.03087979 301.29626499 257.81907667 298.15625 253.328125 C297.58390625 252.67070312 297.58390625 252.67070312 297 252 C296.34 252 295.68 252 295 252 C294.59587891 251.13568359 294.59587891 251.13568359 294.18359375 250.25390625 C292.9793982 247.96076819 291.62488595 246.00080358 290.0625 243.9375 C289.30646484 242.93009766 289.30646484 242.93009766 288.53515625 241.90234375 C287.10353998 240.12830527 285.71626759 238.50114958 284 237 C283.34 237 282.68 237 282 237 C281.78988281 236.46536133 281.57976563 235.93072266 281.36328125 235.37988281 C279.47038985 232.0754585 276.86934474 229.58405497 274.1875 226.921875 C273.61797607 226.35043762 273.04845215 225.77900024 272.46166992 225.19024658 C271.2604332 223.98765211 270.05668003 222.78756666 268.85058594 221.58984375 C266.99959045 219.74959283 265.15954554 217.89887367 263.3203125 216.046875 C262.15168276 214.87956616 260.98243316 213.71287749 259.8125 212.546875 C259.26037842 211.99070496 258.70825684 211.43453491 258.1394043 210.86151123 C255.55211513 207.93085198 255.55211513 207.93085198 252 207 C252 206.34 252 205.68 252 205 C250.42713316 203.58561594 248.78860004 202.24395599 247.125 200.9375 C243.34249013 197.91728166 239.67928585 194.84787607 236.125 191.5625 C230.37597662 186.32020143 224.21652944 181.66660882 218 177 C217.25492188 176.40960938 216.50984375 175.81921875 215.7421875 175.2109375 C214.07990563 173.80975307 214.07990563 173.80975307 212 174 C212 173.34 212 172.68 212 172 C208.77885843 169.68407978 208.77885843 169.68407978 205 169 C205 168.34 205 167.68 205 167 C204.01 167 203.02 167 202 167 C202 166.34 202 165.68 202 165 C198.77885843 162.68407978 198.77885843 162.68407978 195 162 C195 161.34 195 160.68 195 160 C193.24001631 158.67359158 193.24001631 158.67359158 190.94140625 157.390625 C190.07966797 156.88273437 189.21792969 156.37484375 188.33007812 155.8515625 C186.96012695 155.05878906 186.96012695 155.05878906 185.5625 154.25 C180.36132062 151.21248071 175.19726011 148.17927516 170.2109375 144.796875 C166.9310798 142.57862777 163.65136334 140.69124556 160.0625 139 C156.34820463 137.19884672 152.80553768 135.3229999 149.3125 133.125 C143.46457009 129.52554718 137.25897722 126.74593291 131.03125 123.87890625 C127.96820415 122.46632973 124.97780154 120.9607813 122 119.375 C116.94161437 116.79365888 111.61924308 115.01174776 106.23828125 113.22998047 C101.8983819 111.77084141 97.919675 110.00384927 93.85351562 107.90356445 C91.32845122 106.67262882 88.76304946 105.88622871 86.0625 105.125 C80.85617895 103.59797281 75.77985655 101.86056839 70.6875 100 C64.18115105 97.63843631 57.65597529 95.76367349 50.9128418 94.20507812 C46.08640412 93.08640412 46.08640412 93.08640412 45 92 C43.53006335 91.64662129 42.04808057 91.34292941 40.5625 91.0625 C39.66789063 90.88976562 38.77328125 90.71703125 37.8515625 90.5390625 C36.44003906 90.27222656 36.44003906 90.27222656 35 90 C33.14516325 89.64935963 31.29095512 89.29537174 29.4375 88.9375 C28.19806641 88.70353516 28.19806641 88.70353516 26.93359375 88.46484375 C25 88 25 88 24 87 C21.868031 86.76311456 19.73566773 86.52929799 17.6015625 86.3125 C12.0326774 85.64356485 6.5864358 84.44212145 1.1875 82.9375 C-3.31397813 81.77611864 -7.83519361 81.58040973 -12.4609375 81.27734375 C-16.06228844 80.99511868 -19.60935826 80.55669731 -23.1875 80.0625 C-25.10181386 79.80283691 -27.01614315 79.54328561 -28.93063354 79.28492737 C-30.81911768 79.02490536 -32.70513857 78.74715072 -34.59082031 78.4675293 C-48.47216908 76.63435541 -62.36371755 76.69346157 -76.34057617 76.73925781 C-79.85904015 76.75066288 -83.37720193 76.74387465 -86.89565563 76.73237514 C-101.07398099 76.69302901 -114.95539803 76.92495558 -129 79 Z " fill="#000000" transform="translate(720,71)"/>
<path d="M0 0 C8.54863091 7.93085875 13.80597197 18.11271888 14.36618197 29.87923682 C14.45116321 33.8167658 14.42447134 37.74888508 14.38012695 41.68676758 C14.3787136 43.46206115 14.37951406 45.23735765 14.38233948 47.01264954 C14.38376383 51.79298057 14.35453438 56.57267393 14.31946969 61.35285783 C14.28804126 66.36294645 14.28526252 71.3730525 14.27934265 76.38322449 C14.2638524 85.85316095 14.22288961 95.32280602 14.1725952 104.79261464 C14.11655115 115.58106135 14.08917747 126.36952256 14.06411803 137.15807879 C14.01196914 159.33471466 13.92412126 181.51108891 13.8125 203.6875 C14.73610762 203.68381283 15.65971523 203.68012566 16.61131096 203.67632675 C39.10509764 203.58745102 61.59886149 203.52176022 84.09278679 203.48025131 C94.97077558 203.45964335 105.84864825 203.43155647 116.7265625 203.38574219 C126.20992586 203.34582041 135.6932051 203.32005435 145.17665017 203.31114602 C150.19611854 203.30594034 155.21534629 203.29374182 160.2347374 203.26457977 C164.96416807 203.23732631 169.69326017 203.22907503 174.42276192 203.23506927 C176.15369192 203.23397347 177.88463385 203.22607893 179.61549568 203.2106781 C191.56185304 203.1096419 201.01058124 204.22951833 210.8125 211.6875 C211.44929688 212.15671875 212.08609375 212.6259375 212.7421875 213.109375 C222.16652649 220.57771911 226.2570606 230.96070688 227.8125 242.6875 C227.84239724 245.6024811 227.44213912 247.78147331 226.8125 250.6875 C226.62300781 251.77804687 226.62300781 251.77804687 226.4296875 252.890625 C224.06434879 265.53443556 216.97143684 273.72379533 206.73046875 281.14453125 C196.92381358 286.33011196 186.95308158 286.10055266 176.15380859 286.02807617 C174.37895726 286.02722878 172.60410488 286.02770724 170.82925415 286.02940369 C166.03651738 286.03026067 161.24400812 286.01268321 156.45132399 285.99168181 C151.43318825 285.97286529 146.41504668 285.97116066 141.3968811 285.96760559 C131.90568487 285.95829971 122.41459291 285.9337057 112.92344248 285.90355712 C102.11327378 285.86996768 91.30309997 285.85351569 80.49289203 285.83847082 C58.2660366 285.80715482 36.03927488 285.75442275 13.8125 285.6875 C13.81710896 286.60318851 13.82171793 287.51887701 13.82646656 288.46231365 C13.9370699 310.78188563 14.0197169 333.10141013 14.07156086 355.42119884 C14.09730105 366.215063 14.13237139 377.0087438 14.18969727 387.80249023 C14.23966054 397.21446734 14.27182141 406.62631159 14.28294247 416.03841764 C14.28943938 421.0183602 14.30462118 425.99792281 14.34115028 430.97774315 C14.37531427 435.67358245 14.38551212 440.36888853 14.37803841 445.06484032 C14.37940389 446.780008 14.38921414 448.49519518 14.40852737 450.21025467 C14.56233241 464.58442142 12.23347606 476.91682676 1.8125 487.6875 C-1.78615471 490.6875 -1.78615471 490.6875 -4.1875 490.6875 C-4.1875 491.3475 -4.1875 492.0075 -4.1875 492.6875 C-13.67513162 498.079603 -22.3445333 500.67537723 -33.1875 498.6875 C-34.30125 498.605 -35.415 498.5225 -36.5625 498.4375 C-41.57158156 497.4011383 -45.72079223 495.12306903 -50.1875 492.6875 C-50.1875 492.0275 -50.1875 491.3675 -50.1875 490.6875 C-50.744375 490.460625 -51.30125 490.23375 -51.875 490 C-59.6761914 485.57229678 -64.19648952 477.66495742 -67.17683983 469.5130558 C-69.08170517 462.30275023 -68.83857955 455.0990137 -68.75512695 447.68823242 C-68.7537136 445.91293885 -68.75451406 444.13764235 -68.75733948 442.36235046 C-68.75876383 437.58201943 -68.72953438 432.80232607 -68.69446969 428.02214217 C-68.66304126 423.01205355 -68.66026252 418.0019475 -68.65434265 412.99177551 C-68.6388524 403.52183905 -68.59788961 394.05219398 -68.5475952 384.58238536 C-68.49155115 373.79393865 -68.46417747 363.00547744 -68.43911803 352.21692121 C-68.38696914 330.04028534 -68.29912126 307.86391109 -68.1875 285.6875 C-69.10318851 285.69210896 -70.01887701 285.69671793 -70.96231365 285.70146656 C-93.28188563 285.8120699 -115.60141013 285.8947169 -137.92119884 285.94656086 C-148.715063 285.97230105 -159.5087438 286.00737139 -170.30249023 286.06469727 C-179.71446734 286.11466054 -189.12631159 286.14682141 -198.53841764 286.15794247 C-203.5183602 286.16443938 -208.49792281 286.17962118 -213.47774315 286.21615028 C-218.17358245 286.25031427 -222.86888853 286.26051212 -227.56484032 286.25303841 C-229.280008 286.25440389 -230.99519518 286.26421414 -232.71025467 286.28352737 C-246.59178657 286.43206117 -258.04980454 284.32036352 -268.9609375 274.9375 C-276.64770412 267.16982005 -280.91231906 258.50292351 -282.1875 247.6875 C-282.04506158 234.19654708 -277.74248051 223.74975048 -268.546875 213.953125 C-257.82478223 203.65707565 -245.60514196 203.25334092 -231.55053711 203.34692383 C-229.76598118 203.34777101 -227.98142422 203.34729318 -226.1968689 203.34559631 C-221.37308295 203.34473849 -216.54952255 203.36232969 -211.72578883 203.38331819 C-206.6769506 203.40212057 -201.62810673 203.40383823 -196.57923889 203.40739441 C-187.02780258 203.41670442 -177.47646975 203.44130407 -167.92507893 203.47144288 C-157.04721995 203.5050194 -146.16935594 203.52148107 -135.29145801 203.53652918 C-112.92341472 203.56785455 -90.55546317 203.62059472 -68.1875 203.6875 C-68.19118717 202.76389238 -68.19487434 201.84028477 -68.19867325 200.88868904 C-68.28754898 178.39490236 -68.35323978 155.90113851 -68.39474869 133.40721321 C-68.41535665 122.52922442 -68.44344353 111.65135175 -68.48925781 100.7734375 C-68.52917959 91.29007414 -68.55494565 81.8067949 -68.56385398 72.32334983 C-68.56905966 67.30388146 -68.58125818 62.28465371 -68.61042023 57.2652626 C-68.63767369 52.53583193 -68.64592497 47.80673983 -68.63993073 43.07723808 C-68.64102653 41.34630808 -68.64892107 39.61536615 -68.6643219 37.88450432 C-68.74088939 28.83128774 -68.64621595 20.85104039 -64.1875 12.6875 C-63.71828125 11.79675781 -63.2490625 10.90601563 -62.765625 9.98828125 C-56.03385526 -0.08957403 -47.09817313 -6.86851623 -35.1875 -9.6875 C-22.7255437 -11.75798177 -9.62583193 -8.05463609 0 0 Z " fill="#000000" transform="translate(667.1875,395.3125)"/>
</svg>
