<?xml version="1.0" encoding="utf-8"?>
<!-- Generator: Adobe Illustrator 26.3.1, SVG Export Plug-In . SVG Version: 6.00 Build 0)  -->
<svg version="1.1" id="Layer_1" xmlns="http://www.w3.org/2000/svg" xmlns:xlink="http://www.w3.org/1999/xlink" x="0px" y="0px"
	 viewBox="0 0 736 552" style="enable-background:new 0 0 736 552;" xml:space="preserve">
<g transform="translate(0.000000,552.000000) scale(0.100000,-0.100000)">
	<path d="M3406.4,4904.5c-111.1-65.8-250.9-148.1-308.5-181c-59.6-32.9-250.9-141.9-425.8-244.8
		c-174.8-100.8-452.5-263.3-617.1-357.9c-310.6-181-366.1-234.5-343.5-329.1c14.4-55.5,121.4-121.4,1176.5-742.5
		c135.8-80.2,355.8-209.8,491.6-290c164.6-96.7,263.3-144,308.5-144c61.7,2.1,292.1,133.7,1386.3,794
		c183.1,111.1,339.4,201.6,343.5,201.6c6.2,0,8.2-417.5,6.2-929.7l-6.2-929.7L4778.4,1381c-351.7-205.7-738.4-431.9-861.8-503.9
		l-224.2-133.7l-135.8,74c-74,41.1-380.5,216-678.8,390.8c-300.3,174.8-635.6,368.2-744.6,429.9l-199.5,111.1l-2.1,333.2
		c0,183.1-8.2,353.8-18.5,380.5c-10.3,26.7-61.7,69.9-113.1,98.7c-82.3,45.3-98.7,47.3-115.2,20.6c-10.3-16.5-20.6-232.4-20.6-477.2
		c0-434,2.1-448.4,47.3-495.7c24.7-28.8,244.8-166.6,487.5-306.5s662.3-384.6,931.8-541c310.6-181,512.2-283.9,549.2-283.9
		c86.4,0,1949.9,1090.2,1987,1162.1c22.6,45.3,28.8,248.9,28.8,1127.2c0,1195.1,0,1190.9-139.9,1193c-26.7,0-434-228.3-905-508.1
		c-473.1-277.7-882.4-520.4-911.2-536.8c-51.4-30.9-59.6-28.8-216,61.7c-1221.8,709.6-1448.1,841.3-1448.1,849.5
		c0,12.3,1478.9,876.2,1571.5,917.4c45.3,22.6,86.4,4.1,421.7-185.1c201.6-113.1,386.7-207.7,407.3-207.7
		c53.5,0,201.6,88.4,201.6,121.4c0,22.6-341.4,248.9-372.3,248.9c-4.1,0-129.6,69.9-279.7,154.3c-201.6,115.2-290,154.3-345.6,152.2
		C3630.6,5027.9,3546.3,4990.9,3406.4,4904.5z"/>
	<path d="M2787.3,2467.1c-6.2-18.5-12.3-74-12.3-125.5c0-69.9,10.3-100.8,47.3-133.7c59.6-53.5,674.7-407.3,707.6-407.3
		c37,0,37,255.1,2.1,283.9c-30.9,22.6-711.7,415.5-724,415.5C2803.8,2500,2793.5,2485.6,2787.3,2467.1z"/>
	<path d="M3013.6,1788.3c-14.4-39.1-16.5-148.1,0-203.6c12.3-47.3,493.7-347.6,524.5-327c10.3,6.2,18.5,65.8,18.5,131.6
		c0,119.3-2.1,121.4-86.4,181c-104.9,69.9-415.5,250.9-431.9,250.9C3032.1,1821.2,3019.7,1806.8,3013.6,1788.3z"/>
</g>
</svg>
